<svg width="148" height="40" viewBox="0 0 148 40" fill="none" xmlns="http://www.w3.org/2000/svg">
<g clip-path="url(#clip0_849_2010)">
<path d="M20.3504 37.4217C18.1241 37.8127 15.8585 37.9299 13.515 38.2421L6.36675 17.3048V39.1407C4.14039 39.375 2.10929 39.6875 0 40V0H5.93734L14.0617 22.6957V0H20.3504V37.4217ZM32.6545 14.6484C35.0764 14.6484 38.7871 14.5312 41.0135 14.5312V20.7811C38.2401 20.7811 34.9982 20.7811 32.6545 20.8983V30.1953C36.3263 29.961 39.998 29.6483 43.7086 29.531V35.5463L26.4047 36.9138V0H43.7086V6.25001H32.6545V14.6484ZM66.9495 6.25015H60.4655V35.0001C58.3562 35.0001 56.2469 35.0001 54.2161 35.078V6.25015H47.7322V0H66.9498L66.9495 6.25015ZM77.1051 14.2189H85.6595V20.4687H77.1051V34.6486H70.9722V0H88.4327V6.25001H77.1051V14.2189ZM98.5884 29.1797C102.143 29.2576 105.736 29.5315 109.213 29.7265V35.8984C103.627 35.5466 98.0416 35.1955 92.3388 35.078V0H98.5884V29.1797ZM114.486 36.3281C116.478 36.4455 118.587 36.5627 120.618 36.7967V0H114.486V36.3281ZM148 0L140.071 19.0235L148 40C145.656 39.6875 143.313 39.2578 140.969 38.8671L136.477 27.3049L131.907 37.9299C129.641 37.5389 127.454 37.4217 125.189 37.1092L133.235 18.7889L125.97 0H132.688L136.789 10.5078L141.164 0L148 0Z" fill="#D81F26"/>
</g>
<defs>
<clipPath id="clip0_849_2010">
<rect width="148" height="40" fill="white"/>
</clipPath>
</defs>
</svg>
